<svg xmlns="http://www.w3.org/2000/svg" width="162" height="45" viewBox="0 0 162 45" fill="none">
    <script xmlns=""/>
    <path d="M0 19.7094H5.22147V6.99619L11.1813 19.7094H15.4271L21.3869 6.99619V19.7094H26.6875V0.287158H19.9102L13.4756 13.4442L7.22567 0.287158H0V19.7094Z"
          fill="#FA2424"/>
    <path d="M44.1018 12.1128H37.0871L40.5417 4.20294L44.1018 12.1128ZM47.5301 19.7094H53.3581L44.2601 0.287158H36.9816L28.2792 19.7094H33.738L35.3203 16.1069H45.9214L47.5301 19.7094Z"
          fill="#FA2424"/>
    <path d="M64.9169 19.9966C73.2502 19.9966 75.8873 15.7414 75.8873 12.1911V12.1128H70.2966C70.2175 12.7393 69.5582 15.5326 64.3367 15.5326C59.5636 15.5326 58.0077 12.4783 58.0077 10.0766V9.71113C58.0077 7.10062 59.5108 4.43788 64.3104 4.43788C69.4791 4.43788 70.2175 7.17893 70.2966 7.72714H75.8873V7.67493C75.8873 3.9941 73.1447 0 64.9169 0H63.7038C54.7377 0 52.3643 5.5082 52.3643 9.5545V10.3377C52.3643 14.3056 54.7377 19.9966 63.7038 19.9966H64.9169Z"
          fill="#FA2424"/>
    <path d="M78.2036 19.7094H83.636V11.904H97.5056V19.7094H102.938V0.287158H97.5056V7.49219H83.636V0.287158H78.2036V19.7094Z"
          fill="#FA2424"/>
    <path d="M111.859 0.287158H106.426V19.7094H111.859V0.287158Z" fill="#FA2424"/>
    <path d="M132.354 19.7094H137.681V0.287158H132.407V12.7915L120.935 0.287158H115.345V19.7094H120.645V7.12672L132.354 19.7094Z"
          fill="#FA2424"/>
    <path d="M140.957 0.287158V19.7094H162V15.4282H146.311V12.0606H161.446V7.67493H146.311V4.5162H161.842V0.287158H140.957Z"
          fill="#FA2424"/>
    <path d="M0 44.6606H5.20739V36.8552H21.1024V44.6606H26.5349V25.2384H21.1024V32.4434H5.20739V25.2384H0V44.6606Z"
          fill="#FA2424"/>
    <path d="M29.7981 25.2384V44.6606H49.9404V40.3794H35.1514V37.0118H49.3866V32.6261H35.1514V29.4674H50.0073V25.2384H29.7981Z"
          fill="#FA2424"/>
    <path d="M67.5097 37.064H60.495L63.9496 29.1541L67.5097 37.064ZM70.9379 44.6606H76.991L67.6679 25.2384H60.3895L51.687 44.6606H57.1458L58.7281 41.0581H69.3293L70.9379 44.6606Z"
          fill="#FA2424"/>
    <path d="M78.3409 44.6606H90.8902C101.65 44.6606 103.443 39.1263 103.443 35.0539V34.2708C103.443 30.3289 101.096 25.2384 90.8638 25.2384H78.3409V44.6606ZM83.7733 29.5457H90.6265C97.1665 29.5457 97.7994 32.6 97.7994 34.7929V34.9495C97.7994 37.1423 97.2192 40.3272 90.6265 40.3272H83.7733V29.5457Z"
          fill="#FA2424"/>
    <path d="M116.243 45C125.024 45 126.343 41.3714 126.343 38.5259V38.2126C126.343 35.0539 124.655 32.8089 117.667 32.5217L114.95 32.4173C111.865 32.2868 111.153 31.5558 111.153 30.5638C111.153 29.4935 111.97 28.8409 115.451 28.8409H115.715C119.513 28.8409 119.987 30.12 120.119 30.9815H125.947V30.6943C125.947 28.136 124.76 25.0034 116.084 25.0034H115.188C107.065 25.0034 105.43 27.7184 105.43 30.7466V30.9815C105.43 33.9053 107.487 36.4375 113.922 36.6463L116.533 36.7246C119.776 36.8552 120.541 37.56 120.541 38.7347C120.541 39.8573 120.014 41.0581 115.926 41.0581H115.741C111.575 41.0581 111.206 39.1263 111.127 38.2649H105.219V38.552C105.219 40.8754 106.274 45 115.478 45H116.243Z"
          fill="#FA2424"/>
    <script xmlns=""/>
</svg>
